# xmcd
#
# Track frame offsets:
#	150
#	17630
#	32046
#	49898
#	66048
#	82700
#	99854
#	115605
#	133915
#	152048
#	165891
#	177933
#	193554
#	206661
#	224086
#	239369
#	255379
#	267824
#
# Disc length: 3809
#
# Revision: 2
# Processed by: cddbd v1.5.1PL0 Copyright (c) Steve Scherf et al.
# Submitted via: CDex 1.30
# Normalized: r1:TDELIM( - )
#
DISCID=ea0edf12
DTITLE=CDX - Volume 268 June 2001
DYEAR=2001
DGENRE=Country
TTITLE0=Aaron Tippin - Always Was
TTITLE1=Terri Clark - Getting There
TTITLE2=Dixie Chicks - Heartbreak Town
TTITLE3=Clay Walker - If You Ever Feel Like Loving Me Again
TTITLE4=Travis Tritt - Love Of A Woman
TTITLE5=Brooks and Dunn - Only In America
TTITLE6=Gary Allan - Man Of Me
TTITLE7=Marshall Dyllan - She Ain't Gonna Cry
TTITLE8=Patty Loveless - Strong Heart
TTITLE9=Mark McGuinn - That's A Plan
TTITLE10=Shelly Laine - Ain't It Just Like Love
TTITLE11=Asleep At The Wheel - Ain't Nobody Here But Us Chickens
TTITLE12=Irene Kelley - A Little Bluer Than That
TTITLE13=T. Graham Brown - Hide and Seek
TTITLE14=Merle Haggard and Albert E. Brumley Jr - Old Rugged Shoes
TTITLE15=Patty Loveless - Out Of Controll, Raging Fire
TTITLE16=Roy D. Mercer (comedy) - Buckeye Bugs
TTITLE17=Keith Bryant - Drivers In Heaven
EXTD=\nYEAR: 2001  ID3G:   2
EXTT0=
EXTT1=
EXTT2=
EXTT3=
EXTT4=
EXTT5=
EXTT6=
EXTT7=
EXTT8=
EXTT9=
EXTT10=
EXTT11=
EXTT12=
EXTT13=
EXTT14=
EXTT15=
EXTT16=
EXTT17=
PLAYORDER=
